<?xml version="1.0" standalone="no"?>
<!DOCTYPE svg PUBLIC "-//W3C//DTD SVG 20010904//EN"
 "http://www.w3.org/TR/2001/REC-SVG-20010904/DTD/svg10.dtd">
<svg version="1.0" xmlns="http://www.w3.org/2000/svg"
 width="1000.000000pt" height="1000.000000pt" viewBox="0 0 1000.000000 1000.000000"
 preserveAspectRatio="xMidYMid meet">
<metadata>
Created by potrace 1.14, written by Peter Selinger 2001-2017
</metadata>
<g transform="translate(0.000000,1000.000000) scale(0.100000,-0.100000)"
fill="#000000" stroke="none">
<path d="M1310 5005 l0 -3105 570 0 570 0 0 1425 0 1425 1050 0 1050 0 0
-1418 0 -1419 307 -6 c168 -4 307 -6 309 -5 8 9 1405 3166 1406 3178 1 8 -317
688 -705 1510 -389 823 -707 1501 -707 1508 0 9 -70 12 -305 12 l-305 0 -2
-1252 -3 -1253 -1047 -3 -1048 -2 0 1255 0 1255 -570 0 -570 0 0 -3105z"/>
<path d="M6324 8095 c9 -23 1156 -2129 1165 -2138 4 -4 276 475 605 1064 328
589 596 1073 594 1074 -2 1 -536 5 -1187 9 -1066 6 -1183 5 -1177 -9z"/>
<path d="M6903 2985 c-326 -590 -593 -1076 -593 -1079 0 -3 534 -6 1186 -6
1126 0 1186 1 1179 18 -8 23 -1165 2125 -1173 2134 -4 4 -274 -476 -599 -1067z"/>
</g>
</svg>
